<svg width="120" height="120" viewBox="0 0 120 120" fill="none" xmlns="http://www.w3.org/2000/svg">
<mask id="mask0_5503_15266" style="mask-type:alpha" maskUnits="userSpaceOnUse" x="10" y="7" width="85" height="105">
<path d="M10 109.5L12.5 107L15 109.5L12.5 112L10 109.5Z" fill="#C4C4C4"/>
<path d="M10 89.5L12.5 87L15 89.5L12.5 92L10 89.5Z" fill="#C4C4C4"/>
<path d="M10 69.5L12.5 67L15 69.5L12.5 72L10 69.5Z" fill="#C4C4C4"/>
<path d="M10 49.5L12.5 47L15 49.5L12.5 52L10 49.5Z" fill="#C4C4C4"/>
<path d="M10 29.5L12.5 27L15 29.5L12.5 32L10 29.5Z" fill="#C4C4C4"/>
<path d="M10 9.5L12.5 7L15 9.5L12.5 12L10 9.5Z" fill="#C4C4C4"/>
<path d="M30 109.5L32.5 107L35 109.5L32.5 112L30 109.5Z" fill="#C4C4C4"/>
<path d="M30 89.5L32.5 87L35 89.5L32.5 92L30 89.5Z" fill="#C4C4C4"/>
<path d="M30 69.5L32.5 67L35 69.5L32.5 72L30 69.5Z" fill="#C4C4C4"/>
<path d="M30 49.5L32.5 47L35 49.5L32.5 52L30 49.5Z" fill="#C4C4C4"/>
<path d="M30 29.5L32.5 27L35 29.5L32.5 32L30 29.5Z" fill="#C4C4C4"/>
<path d="M30 9.5L32.5 7L35 9.5L32.5 12L30 9.5Z" fill="#C4C4C4"/>
<path d="M50 109.5L52.5 107L55 109.5L52.5 112L50 109.5Z" fill="#C4C4C4"/>
<path d="M50 89.5L52.5 87L55 89.5L52.5 92L50 89.5Z" fill="#C4C4C4"/>
<path d="M50 69.5L52.5 67L55 69.5L52.5 72L50 69.5Z" fill="#C4C4C4"/>
<path d="M50 49.5L52.5 47L55 49.5L52.5 52L50 49.5Z" fill="#C4C4C4"/>
<path d="M50 29.5L52.5 27L55 29.5L52.5 32L50 29.5Z" fill="#C4C4C4"/>
<path d="M50 9.5L52.5 7L55 9.5L52.5 12L50 9.5Z" fill="#C4C4C4"/>
<path d="M70 109.5L72.5 107L75 109.5L72.5 112L70 109.5Z" fill="#C4C4C4"/>
<path d="M70 89.5L72.5 87L75 89.5L72.5 92L70 89.5Z" fill="#C4C4C4"/>
<path d="M70 69.5L72.5 67L75 69.5L72.5 72L70 69.5Z" fill="#C4C4C4"/>
<path d="M70 49.5L72.5 47L75 49.5L72.5 52L70 49.5Z" fill="#C4C4C4"/>
<path d="M70 29.5L72.5 27L75 29.5L72.5 32L70 29.5Z" fill="#C4C4C4"/>
<path d="M70 9.5L72.5 7L75 9.5L72.5 12L70 9.5Z" fill="#C4C4C4"/>
<path d="M90 109.5L92.5 107L95 109.5L92.5 112L90 109.5Z" fill="#C4C4C4"/>
<path d="M90 89.5L92.5 87L95 89.5L92.5 92L90 89.5Z" fill="#C4C4C4"/>
<path d="M90 69.5L92.5 67L95 69.5L92.5 72L90 69.5Z" fill="#C4C4C4"/>
<path d="M90 49.5L92.5 47L95 49.5L92.5 52L90 49.5Z" fill="#C4C4C4"/>
<path d="M90 29.5L92.5 27L95 29.5L92.5 32L90 29.5Z" fill="#C4C4C4"/>
<path d="M90 9.5L92.5 7L95 9.5L92.5 12L90 9.5Z" fill="#C4C4C4"/>
</mask>
<g mask="url(#mask0_5503_15266)">
<rect x="9" y="120" width="120" height="92" transform="rotate(-90 9 120)" fill="url(#paint0_linear_5503_15266)" fill-opacity="0.3"/>
</g>
<defs>
<linearGradient id="paint0_linear_5503_15266" x1="69" y1="120" x2="69" y2="212" gradientUnits="userSpaceOnUse">
<stop stop-color="#967140"/>
<stop offset="1" stop-color="#967140" stop-opacity="0"/>
</linearGradient>
</defs>
</svg>
