<svg width="211" height="120" viewBox="0 0 211 120" fill="none" xmlns="http://www.w3.org/2000/svg">
<rect width="211" height="120" rx="6" fill="url(#paint0_linear_4819_18589)"/>
<mask id="mask0_4819_18589" style="mask-type:alpha" maskUnits="userSpaceOnUse" x="10" y="7" width="165" height="105">
<path d="M10 109.5L12.5 107L15 109.5L12.5 112L10 109.5Z" fill="#C4C4C4"/>
<path d="M10 89.5L12.5 87L15 89.5L12.5 92L10 89.5Z" fill="#C4C4C4"/>
<path d="M10 69.5L12.5 67L15 69.5L12.5 72L10 69.5Z" fill="#C4C4C4"/>
<path d="M10 49.5L12.5 47L15 49.5L12.5 52L10 49.5Z" fill="#C4C4C4"/>
<path d="M10 29.5L12.5 27L15 29.5L12.5 32L10 29.5Z" fill="#C4C4C4"/>
<path d="M10 9.5L12.5 7L15 9.5L12.5 12L10 9.5Z" fill="#C4C4C4"/>
<path d="M30 109.5L32.5 107L35 109.5L32.5 112L30 109.5Z" fill="#C4C4C4"/>
<path d="M30 89.5L32.5 87L35 89.5L32.5 92L30 89.5Z" fill="#C4C4C4"/>
<path d="M30 69.5L32.5 67L35 69.5L32.5 72L30 69.5Z" fill="#C4C4C4"/>
<path d="M30 49.5L32.5 47L35 49.5L32.5 52L30 49.5Z" fill="#C4C4C4"/>
<path d="M30 29.5L32.5 27L35 29.5L32.5 32L30 29.5Z" fill="#C4C4C4"/>
<path d="M30 9.5L32.5 7L35 9.5L32.5 12L30 9.5Z" fill="#C4C4C4"/>
<path d="M50 109.5L52.5 107L55 109.5L52.5 112L50 109.5Z" fill="#C4C4C4"/>
<path d="M50 89.5L52.5 87L55 89.5L52.5 92L50 89.5Z" fill="#C4C4C4"/>
<path d="M50 69.5L52.5 67L55 69.5L52.5 72L50 69.5Z" fill="#C4C4C4"/>
<path d="M50 49.5L52.5 47L55 49.5L52.5 52L50 49.5Z" fill="#C4C4C4"/>
<path d="M50 29.5L52.5 27L55 29.5L52.5 32L50 29.5Z" fill="#C4C4C4"/>
<path d="M50 9.5L52.5 7L55 9.5L52.5 12L50 9.5Z" fill="#C4C4C4"/>
<path d="M70 109.5L72.5 107L75 109.5L72.5 112L70 109.5Z" fill="#C4C4C4"/>
<path d="M70 89.5L72.5 87L75 89.5L72.5 92L70 89.5Z" fill="#C4C4C4"/>
<path d="M70 69.5L72.5 67L75 69.5L72.5 72L70 69.5Z" fill="#C4C4C4"/>
<path d="M70 49.5L72.5 47L75 49.5L72.5 52L70 49.5Z" fill="#C4C4C4"/>
<path d="M70 29.5L72.5 27L75 29.5L72.5 32L70 29.5Z" fill="#C4C4C4"/>
<path d="M70 9.5L72.5 7L75 9.5L72.5 12L70 9.5Z" fill="#C4C4C4"/>
<path d="M90 109.5L92.5 107L95 109.5L92.5 112L90 109.5Z" fill="#C4C4C4"/>
<path d="M90 89.5L92.5 87L95 89.5L92.5 92L90 89.5Z" fill="#C4C4C4"/>
<path d="M90 69.5L92.5 67L95 69.5L92.5 72L90 69.5Z" fill="#C4C4C4"/>
<path d="M90 49.5L92.5 47L95 49.5L92.5 52L90 49.5Z" fill="#C4C4C4"/>
<path d="M90 29.5L92.5 27L95 29.5L92.5 32L90 29.5Z" fill="#C4C4C4"/>
<path d="M90 9.5L92.5 7L95 9.5L92.5 12L90 9.5Z" fill="#C4C4C4"/>
<path d="M110 109.5L112.5 107L115 109.5L112.5 112L110 109.5Z" fill="#C4C4C4"/>
<path d="M110 89.5L112.5 87L115 89.5L112.5 92L110 89.5Z" fill="#C4C4C4"/>
<path d="M110 69.5L112.5 67L115 69.5L112.5 72L110 69.5Z" fill="#C4C4C4"/>
<path d="M110 49.5L112.5 47L115 49.5L112.5 52L110 49.5Z" fill="#C4C4C4"/>
<path d="M110 29.5L112.5 27L115 29.5L112.5 32L110 29.5Z" fill="#C4C4C4"/>
<path d="M110 9.5L112.5 7L115 9.5L112.5 12L110 9.5Z" fill="#C4C4C4"/>
<path d="M130 109.5L132.5 107L135 109.5L132.5 112L130 109.5Z" fill="#C4C4C4"/>
<path d="M130 89.5L132.5 87L135 89.5L132.5 92L130 89.5Z" fill="#C4C4C4"/>
<path d="M130 69.5L132.5 67L135 69.5L132.5 72L130 69.5Z" fill="#C4C4C4"/>
<path d="M130 49.5L132.5 47L135 49.5L132.5 52L130 49.5Z" fill="#C4C4C4"/>
<path d="M130 29.5L132.5 27L135 29.5L132.5 32L130 29.5Z" fill="#C4C4C4"/>
<path d="M130 9.5L132.5 7L135 9.5L132.5 12L130 9.5Z" fill="#C4C4C4"/>
<path d="M150 109.5L152.5 107L155 109.5L152.5 112L150 109.5Z" fill="#C4C4C4"/>
<path d="M150 89.5L152.5 87L155 89.5L152.5 92L150 89.5Z" fill="#C4C4C4"/>
<path d="M150 69.5L152.5 67L155 69.5L152.5 72L150 69.5Z" fill="#C4C4C4"/>
<path d="M150 49.5L152.5 47L155 49.5L152.5 52L150 49.5Z" fill="#C4C4C4"/>
<path d="M150 29.5L152.5 27L155 29.5L152.5 32L150 29.5Z" fill="#C4C4C4"/>
<path d="M150 9.5L152.5 7L155 9.5L152.5 12L150 9.5Z" fill="#C4C4C4"/>
<path d="M170 109.5L172.5 107L175 109.5L172.5 112L170 109.5Z" fill="#C4C4C4"/>
<path d="M170 89.5L172.5 87L175 89.5L172.5 92L170 89.5Z" fill="#C4C4C4"/>
<path d="M170 69.5L172.5 67L175 69.5L172.5 72L170 69.5Z" fill="#C4C4C4"/>
<path d="M170 49.5L172.5 47L175 49.5L172.5 52L170 49.5Z" fill="#C4C4C4"/>
<path d="M170 29.5L172.5 27L175 29.5L172.5 32L170 29.5Z" fill="#C4C4C4"/>
<path d="M170 9.5L172.5 7L175 9.5L172.5 12L170 9.5Z" fill="#C4C4C4"/>
</mask>
<g mask="url(#mask0_4819_18589)">
<rect x="6" y="120" width="120" height="165" transform="rotate(-90 6 120)" fill="url(#paint1_linear_4819_18589)" fill-opacity="0.3"/>
</g>
<defs>
<linearGradient id="paint0_linear_4819_18589" x1="108" y1="111" x2="6.99999" y2="-6.68703e-07" gradientUnits="userSpaceOnUse">
<stop stop-color="#CDA269"/>
<stop offset="1" stop-color="#FFD49A"/>
</linearGradient>
<linearGradient id="paint1_linear_4819_18589" x1="66" y1="120" x2="66" y2="285" gradientUnits="userSpaceOnUse">
<stop stop-color="white"/>
<stop offset="1" stop-color="white" stop-opacity="0"/>
</linearGradient>
</defs>
</svg>
