<svg width="24" height="24" viewBox="0 0 24 24" fill="none" xmlns="http://www.w3.org/2000/svg">
<mask id="path-1-inside-1" fill="white">
<path fill-rule="evenodd" clip-rule="evenodd" d="M11.5 12H18V10.4599L12 5.31708L6 10.4599V19H11.5V12ZM5 20V10L12 4L19 10V20H5ZM14 19H12.5V13H18V14.5H14V19ZM15 19H18V15.5H15V19Z"/>
</mask>
<path fill-rule="evenodd" clip-rule="evenodd" d="M11.5 12H18V10.4599L12 5.31708L6 10.4599V19H11.5V12ZM5 20V10L12 4L19 10V20H5ZM14 19H12.5V13H18V14.5H14V19ZM15 19H18V15.5H15V19Z" fill="white"/>
<path d="M11.5 12V11H10.5V12H11.5ZM18 12V13H19V12H18ZM18 10.4599H19V10L18.6508 9.70068L18 10.4599ZM12 5.31708L12.6508 4.55782L12 4L11.3492 4.55782L12 5.31708ZM6 10.4599L5.34921 9.70068L5 10V10.4599H6ZM6 19H5V20H6V19ZM11.5 19V20H12.5V19H11.5ZM5 20H4V21H5V20ZM5 10L4.34921 9.24074L4 9.54007V10H5ZM12 4L12.6508 3.24074L12 2.68292L11.3492 3.24074L12 4ZM19 10H20V9.54007L19.6508 9.24074L19 10ZM19 20V21H20V20H19ZM14 19V20H15V19H14ZM12.5 19H11.5V20H12.5V19ZM12.5 13V12H11.5V13H12.5ZM18 13H19V12H18V13ZM18 14.5V15.5H19V14.5H18ZM14 14.5V13.5H13V14.5H14ZM18 19V20H19V19H18ZM15 19H14V20H15V19ZM18 15.5H19V14.5H18V15.5ZM15 15.5V14.5H14V15.5H15ZM17 10.4599V12H19V10.4599H17ZM11.3492 6.07633L17.3492 11.2192L18.6508 9.70068L12.6508 4.55782L11.3492 6.07633ZM6.65079 11.2192L12.6508 6.07633L11.3492 4.55782L5.34921 9.70068L6.65079 11.2192ZM7 19V10.4599H5V19H7ZM11.5 18H6V20H11.5V18ZM5.65079 10.7593L12.6508 4.75926L11.3492 3.24074L4.34921 9.24074L5.65079 10.7593ZM11.3492 4.75926L18.3492 10.7593L19.6508 9.24074L12.6508 3.24074L11.3492 4.75926ZM14 18H12.5V20H14V18ZM13.5 19V13H11.5V19H13.5ZM12.5 14H18V12H12.5V14ZM17 13V14.5H19V13H17ZM18 18H15V20H18V18ZM17 15.5V19H19V15.5H17ZM15 16.5H18V14.5H15V16.5ZM16 19V15.5H14V19H16ZM18 11H11.5V13H18V11ZM10.5 12V19H12.5V12H10.5ZM19 19H5V21H19V19ZM6 20V10H4V20H6ZM18 10V20H20V10H18ZM18 13.5H14V15.5H18V13.5ZM13 14.5V19H15V14.5H13Z" fill="white" mask="url(#path-1-inside-1)"/>
</svg>
