<svg width="157" height="62" viewBox="0 0 157 62" fill="none" xmlns="http://www.w3.org/2000/svg">
<g opacity="0.5">
<mask id="mask0_5395_3517" style="mask-type:alpha" maskUnits="userSpaceOnUse" x="0" y="0" width="157" height="62">
<path d="M156.692 2.37413L154.318 4.74825L151.944 2.37413L154.318 -1.03776e-07L156.692 2.37413Z" fill="#C4C4C4"/>
<path d="M156.692 21.3673L154.318 23.7414L151.944 21.3673L154.318 18.9932L156.692 21.3673Z" fill="#C4C4C4"/>
<path d="M156.692 40.3602L154.318 42.7343L151.944 40.3602L154.318 37.9861L156.692 40.3602Z" fill="#C4C4C4"/>
<path d="M156.692 59.3534L154.318 61.7275L151.944 59.3534L154.318 56.9792L156.692 59.3534Z" fill="#C4C4C4"/>
<path d="M137.699 2.37413L135.325 4.74825L132.951 2.37413L135.325 -1.03776e-07L137.699 2.37413Z" fill="#C4C4C4"/>
<path d="M137.699 21.3673L135.325 23.7414L132.951 21.3673L135.325 18.9932L137.699 21.3673Z" fill="#C4C4C4"/>
<path d="M137.699 40.3602L135.325 42.7343L132.951 40.3602L135.325 37.9861L137.699 40.3602Z" fill="#C4C4C4"/>
<path d="M137.699 59.3534L135.325 61.7275L132.951 59.3534L135.325 56.9792L137.699 59.3534Z" fill="#C4C4C4"/>
<path d="M118.706 2.37413L116.332 4.74825L113.958 2.37413L116.332 -1.03776e-07L118.706 2.37413Z" fill="#C4C4C4"/>
<path d="M118.706 21.3673L116.332 23.7414L113.958 21.3673L116.332 18.9932L118.706 21.3673Z" fill="#C4C4C4"/>
<path d="M118.706 40.3602L116.332 42.7343L113.958 40.3602L116.332 37.9861L118.706 40.3602Z" fill="#C4C4C4"/>
<path d="M118.706 59.3534L116.332 61.7275L113.958 59.3534L116.332 56.9792L118.706 59.3534Z" fill="#C4C4C4"/>
<path d="M99.7129 2.37413L97.3388 4.74825L94.9646 2.37413L97.3388 -1.03776e-07L99.7129 2.37413Z" fill="#C4C4C4"/>
<path d="M99.7129 21.3673L97.3388 23.7414L94.9646 21.3673L97.3388 18.9932L99.7129 21.3673Z" fill="#C4C4C4"/>
<path d="M99.7129 40.3602L97.3388 42.7343L94.9646 40.3602L97.3388 37.9861L99.7129 40.3602Z" fill="#C4C4C4"/>
<path d="M99.7129 59.3534L97.3388 61.7275L94.9646 59.3534L97.3388 56.9792L99.7129 59.3534Z" fill="#C4C4C4"/>
<path d="M80.7207 2.37413L78.3466 4.74825L75.9724 2.37413L78.3466 -1.03776e-07L80.7207 2.37413Z" fill="#C4C4C4"/>
<path d="M80.7207 21.3673L78.3466 23.7414L75.9724 21.3673L78.3466 18.9932L80.7207 21.3673Z" fill="#C4C4C4"/>
<path d="M80.7207 40.3602L78.3466 42.7343L75.9724 40.3602L78.3466 37.9861L80.7207 40.3602Z" fill="#C4C4C4"/>
<path d="M80.7207 59.3534L78.3466 61.7275L75.9724 59.3534L78.3466 56.9792L80.7207 59.3534Z" fill="#C4C4C4"/>
<path d="M61.7275 2.37413L59.3534 4.74825L56.9793 2.37413L59.3534 -1.03776e-07L61.7275 2.37413Z" fill="#C4C4C4"/>
<path d="M61.7275 21.3673L59.3534 23.7414L56.9793 21.3673L59.3534 18.9932L61.7275 21.3673Z" fill="#C4C4C4"/>
<path d="M61.7275 40.3602L59.3534 42.7343L56.9793 40.3602L59.3534 37.9861L61.7275 40.3602Z" fill="#C4C4C4"/>
<path d="M61.7275 59.3534L59.3534 61.7275L56.9793 59.3534L59.3534 56.9792L61.7275 59.3534Z" fill="#C4C4C4"/>
<path d="M42.7344 2.37413L40.3602 4.74825L37.9861 2.37413L40.3602 -1.03776e-07L42.7344 2.37413Z" fill="#C4C4C4"/>
<path d="M42.7344 21.3673L40.3602 23.7414L37.9861 21.3673L40.3602 18.9932L42.7344 21.3673Z" fill="#C4C4C4"/>
<path d="M42.7344 40.3602L40.3602 42.7343L37.9861 40.3602L40.3602 37.9861L42.7344 40.3602Z" fill="#C4C4C4"/>
<path d="M42.7344 59.3534L40.3602 61.7275L37.9861 59.3534L40.3602 56.9792L42.7344 59.3534Z" fill="#C4C4C4"/>
<path d="M23.7412 2.37413L21.3671 4.74825L18.993 2.37413L21.3671 -1.03776e-07L23.7412 2.37413Z" fill="#C4C4C4"/>
<path d="M23.7412 21.3673L21.3671 23.7414L18.993 21.3673L21.3671 18.9932L23.7412 21.3673Z" fill="#C4C4C4"/>
<path d="M23.7412 40.3602L21.3671 42.7343L18.993 40.3602L21.3671 37.9861L23.7412 40.3602Z" fill="#C4C4C4"/>
<path d="M23.7412 59.3534L21.3671 61.7275L18.993 59.3534L21.3671 56.9792L23.7412 59.3534Z" fill="#C4C4C4"/>
<path d="M4.74805 2.37413L2.37392 4.74825L-0.000206574 2.37413L2.37392 -1.03776e-07L4.74805 2.37413Z" fill="#C4C4C4"/>
<path d="M4.74805 21.3673L2.37392 23.7414L-0.000206574 21.3673L2.37392 18.9932L4.74805 21.3673Z" fill="#C4C4C4"/>
<path d="M4.74805 40.3602L2.37392 42.7343L-0.000206574 40.3602L2.37392 37.9861L4.74805 40.3602Z" fill="#C4C4C4"/>
<path d="M4.74805 59.3534L2.37392 61.7275L-0.000206574 59.3534L2.37392 56.9792L4.74805 59.3534Z" fill="#C4C4C4"/>
</mask>
<g mask="url(#mask0_5395_3517)">
<rect x="156.692" y="-94.9651" width="156.692" height="156.692" transform="rotate(90 156.692 -94.9651)" fill="url(#paint0_linear_5395_3517)"/>
</g>
</g>
<defs>
<linearGradient id="paint0_linear_5395_3517" x1="235.039" y1="-94.9651" x2="235.039" y2="61.7273" gradientUnits="userSpaceOnUse">
<stop stop-color="#967140"/>
<stop offset="1" stop-color="#967140" stop-opacity="0"/>
</linearGradient>
</defs>
</svg>
